PathFileType	4	(X/Y/Z)	output.trc
DataRate	CameraRate	NumFrames	NumMarkers	Units	OrigDataRate	OrigDataStartFrame	OrigNumFrames
200	200	4	68	mm	200	185	295
Frame#	Time			LASI			RASI			RSACR			LSACR			USACR			LBAR			RBAR			RHEE			RMT1			RMT5			RMT2			LHEE			LMT1			LMT5			LMT2			LMMAL			LMFC			LLFC			LLMAL			LTIB4			LTIB2			LTIB3			LTIB1			RMMAL			RMFC			RLFC			RLMAL			RTIB1			RTIB2			RTIB3			RTHI1			RTHI4			RTHI3			RTHI2			LTHI1			LTHI4			LTHI3			LTHI2			FHD			LBHD			RBHD			C7			T10			CLAV			LSHO			RSHO			LRAD			LUL			LRFIN			RRAD			RUL			RUFIN			RLEP			RMEP			LLEP			LMEP			LDUPA			LMUPA			LUUPA			RDUPA			RUUPA			RMUPA			LHJC			RHJC			LKJC			RKJC			LAJC			RAJC
		X1	Y1	Z1	X2	Y2	Z2	X3	Y3	Z3	X4	Y4	Z4	X5	Y5	Z5	X6	Y6	Z6	X7	Y7	Z7	X8	Y8	Z8	X9	Y9	Z9	X10	Y10	Z10	X11	Y11	Z11	X12	Y12	Z12	X13	Y13	Z13	X14	Y14	Z14	X15	Y15	Z15	X16	Y16	Z16	X17	Y17	Z17	X18	Y18	Z18	X19	Y19	Z19	X20	Y20	Z20	X21	Y21	Z21	X22	Y22	Z22	X23	Y23	Z23	X24	Y24	Z24	X25	Y25	Z25	X26	Y26	Z26	X27	Y27	Z27	X28	Y28	Z28	X29	Y29	Z29	X30	Y30	Z30	X31	Y31	Z31	X32	Y32	Z32	X33	Y33	Z33	X34	Y34	Z34	X35	Y35	Z35	X36	Y36	Z36	X37	Y37	Z37	X38	Y38	Z38	X39	Y39	Z39	X40	Y40	Z40	X41	Y41	Z41	X42	Y42	Z42	X43	Y43	Z43	X44	Y44	Z44	X45	Y45	Z45	X46	Y46	Z46	X47	Y47	Z47	X48	Y48	Z48	X49	Y49	Z49	X50	Y50	Z50	X51	Y51	Z51	X52	Y52	Z52	X53	Y53	Z53	X54	Y54	Z54	X55	Y55	Z55	X56	Y56	Z56	X57	Y57	Z57	X58	Y58	Z58	X59	Y59	Z59	X60	Y60	Z60	X61	Y61	Z61	X62	Y62	Z62	X63	Y63	Z63	X64	Y64	Z64	X65	Y65	Z65	X66	Y66	Z66	X67	Y67	Z67	X68	Y68	Z68
184	0.920000	133.765900	918.204956	-761.883301	129.466339	918.826965	-984.400940	309.199677	950.089355	-912.270325	308.176422	953.339783	-852.464905	297.530853	966.488037	-882.228394	1270.838257	26.299427	346.489746	1226.430298	26.265146	-1876.956665	323.054230	39.831970	-1019.663147	128.169754	43.452202	-1043.316406	164.996353	34.995647	-1113.785767	140.177704	42.702759	-1079.962891	326.241638	45.826817	-745.164856	134.384277	46.338734	-736.442871	169.964340	33.416019	-662.783386	143.159851	45.925308	-698.031799	276.676575	72.962646	-778.674316	232.765457	456.951965	-828.966125	219.189041	453.988586	-721.328857	278.788605	69.127014	-700.971130	290.259460	209.608688	-691.422852	313.908722	270.906830	-691.389160	263.425171	268.154083	-684.469482	301.599274	314.321838	-687.011169	275.166382	68.343849	-994.073730	235.195175	446.541077	-935.275696	220.449081	461.310608	-1041.157104	284.663300	72.255295	-1068.588135	257.015533	319.286896	-1082.650269	307.443878	314.029144	-1077.117676	276.504425	256.166718	-1081.277954	241.563812	783.822510	-1059.932495	242.660858	635.120361	-1064.460083	191.263901	636.996765	-1066.438110	218.971237	696.983093	-1070.013428	238.462753	778.892151	-698.567871	236.399658	646.568359	-694.932922	185.676086	637.494263	-693.029663	200.102356	701.220947	-689.138000	130.779556	1593.144775	-775.850220	241.544724	1576.050415	-786.858337	253.032501	1571.210693	-910.323364	263.167694	1391.329102	-858.131348	285.551300	1007.463989	-877.326355	140.838135	1328.156128	-872.925171	244.826599	1380.866699	-725.420776	236.778702	1396.745605	-986.992798	166.666046	1359.672607	-222.772079	207.292847	1355.126099	-222.496384	153.477783	1339.151245	-130.760681	241.000244	1389.348389	-1500.801636	287.900269	1383.130981	-1499.941895	235.245499	1391.600586	-1590.977295	293.215820	1329.770386	-1271.520630	254.880844	1296.296387	-1272.044434	222.000839	1300.957275	-454.186432	181.040344	1278.592285	-466.790710	238.099930	1354.450928	-506.317444	202.181503	1372.052002	-536.842346	239.114594	1362.879150	-585.513367	266.319611	1382.228516	-1205.910767	257.089325	1383.899658	-1144.202881	216.055893	1385.418701	-1212.426514	226.801697	883.478943	-770.972046	226.743271	884.246277	-985.534607	225.977249	455.470276	-775.147461	227.822128	453.925842	-988.216431	277.732605	71.044830	-739.822754	279.914856	70.299576	-1031.330933
185	0.925000	133.773956	918.198792	-761.896912	129.484055	918.824585	-984.404602	309.220459	950.089050	-912.261536	308.205597	953.349365	-852.464966	297.548035	966.478943	-882.225403	1270.837402	26.299582	346.487457	1226.415894	26.291887	-1876.963989	323.056427	39.833004	-1019.640442	128.166077	43.452610	-1043.326416	165.003174	34.998077	-1113.785034	140.176590	42.705612	-1079.964111	326.246002	45.820999	-745.160767	134.383408	46.339382	-736.447021	169.971786	33.419445	-662.785095	143.159576	45.921906	-698.031494	276.681885	72.959274	-778.679810	232.769775	456.944794	-828.968262	219.191742	453.989227	-721.334961	278.791962	69.134521	-700.974670	290.254608	209.606873	-691.430786	313.860168	270.958313	-691.379883	263.369080	268.130615	-684.394348	301.605896	314.293243	-687.020264	275.171722	68.343956	-994.075867	235.191559	446.543854	-935.278748	220.469162	461.308350	-1041.158936	284.658325	72.250671	-1068.593384	257.019836	319.279327	-1082.664307	307.466309	314.022156	-1077.121460	276.514343	256.153229	-1081.278442	241.573288	783.821777	-1059.936035	242.687836	635.109619	-1064.477173	191.276077	636.990234	-1066.471436	218.987350	696.972290	-1070.019897	238.459625	778.895691	-698.574341	236.388123	646.555054	-694.950256	185.695908	637.492004	-693.023926	200.126755	701.218384	-689.142029	130.820435	1593.139160	-775.852051	241.543289	1576.064697	-786.855225	253.043228	1571.203735	-910.322754	263.169403	1391.326416	-858.120300	285.570709	1007.472351	-877.327393	140.837662	1328.146851	-872.917114	244.847824	1380.870361	-725.409119	236.781967	1396.752075	-986.988525	166.668152	1359.659790	-222.771744	207.300339	1355.111572	-222.491989	153.467377	1339.160645	-130.768036	241.010803	1389.368164	-1500.798462	287.909668	1383.134155	-1499.937134	235.255096	1391.615723	-1590.961914	293.210388	1329.774048	-1271.518921	254.882858	1296.306274	-1272.039185	221.998734	1300.957153	-454.185272	181.057632	1278.583862	-466.785034	238.111725	1354.460083	-506.303955	202.184509	1372.045776	-536.831726	239.111832	1362.895996	-585.500671	266.324860	1382.239502	-1205.905518	257.098846	1383.898804	-1144.191406	216.061905	1385.425049	-1212.420166	226.813065	883.481262	-770.978760	226.759262	884.245117	-985.534058	225.980759	455.467010	-775.151611	227.830353	453.926086	-988.218872	277.736938	71.046898	-739.827271	279.915039	70.297318	-1031.334595
186	0.930000	133.782349	918.198792	-761.901367	129.509827	918.820984	-984.408813	309.230560	950.094727	-912.260376	308.213348	953.358032	-852.450317	297.568390	966.486206	-882.214172	1270.823120	26.293308	346.539734	1226.432129	26.277843	-1876.970947	323.047791	39.838501	-1019.649780	128.176514	43.444988	-1043.323975	165.072464	34.827065	-1113.672607	140.179825	42.705635	-1079.963257	326.238190	45.826023	-745.157837	134.385666	46.339024	-736.444946	169.963928	33.420815	-662.789307	143.167786	45.920177	-698.031616	276.688049	72.960800	-778.677063	232.780045	456.948486	-828.978516	219.195770	453.992157	-721.336914	278.785095	69.118347	-700.965088	290.257233	209.605225	-691.430969	313.908234	270.906403	-691.401611	263.355713	268.129517	-684.402954	301.603546	314.286652	-687.024841	275.178131	68.344475	-994.068848	235.208466	446.539551	-935.278137	220.482300	461.306671	-1041.155518	284.650757	72.249962	-1068.585083	257.033447	319.280518	-1082.648560	307.473297	314.021667	-1077.114502	276.512970	256.152008	-1081.282837	241.594849	783.823242	-1059.937378	242.709137	635.121826	-1064.468872	191.302185	637.002014	-1066.451172	219.048691	696.976685	-1070.015625	238.461975	778.895813	-698.571777	236.384659	646.562012	-694.947510	185.698547	637.502808	-693.008545	200.137802	701.219238	-689.135071	130.815506	1593.145142	-775.849243	241.532425	1576.054199	-786.855347	253.039124	1571.195190	-910.321045	263.171814	1391.337646	-858.118286	285.586060	1007.464905	-877.322754	140.839798	1328.138916	-872.914185	244.844437	1380.877197	-725.402283	236.786804	1396.752075	-986.980652	166.668747	1359.648315	-222.766464	207.298157	1355.113647	-222.482742	153.436371	1339.262695	-130.679993	241.021683	1389.381714	-1500.788208	287.909454	1383.151123	-1499.935303	235.259644	1391.623535	-1590.954956	293.207550	1329.775513	-1271.511353	254.892349	1296.310913	-1272.032349	222.005371	1300.955200	-454.179779	181.062988	1278.579834	-466.775299	238.100235	1354.448608	-506.308807	202.193604	1372.044922	-536.839600	239.122070	1362.865356	-585.509766	266.335052	1382.237427	-1205.896362	257.111969	1383.909912	-1144.181274	216.124756	1385.352417	-1212.364868	226.819229	883.484192	-770.974487	226.778412	884.246338	-985.535522	225.987915	455.470337	-775.157715	227.845383	453.923096	-988.216797	277.736572	71.039574	-739.821045	279.914429	70.297218	-1031.326904
187	0.935000	133.795593	918.199219	-761.902466	129.521500	918.823120	-984.412292	309.249207	950.093689	-912.258667	308.238159	953.360291	-852.451721	297.580231	966.484375	-882.215332	1270.829956	26.293125	346.470581	1226.420410	26.278772	-1876.973999	323.052521	39.837097	-1019.642334	128.168243	43.446880	-1043.324707	165.003189	34.995605	-1113.794189	140.172272	42.707993	-1079.961182	326.241455	45.822010	-745.154968	134.390839	46.334038	-736.445435	169.955597	33.429482	-662.788452	143.167297	45.921497	-698.038147	276.674652	72.963928	-778.684631	232.807495	456.940399	-828.969055	219.211014	453.996887	-721.343628	278.794006	69.126831	-700.967896	290.256744	209.600571	-691.426453	313.906616	270.893982	-691.382507	263.430145	268.147919	-684.474792	301.593994	314.317505	-687.006897	275.184937	68.344086	-994.078674	235.223526	446.537720	-935.286560	220.489090	461.313965	-1041.171021	284.661957	72.248940	-1068.587646	257.048096	319.276428	-1082.653564	307.500854	314.023437	-1077.105591	276.538177	256.161865	-1081.284058	241.626236	783.826782	-1059.936890	242.725418	635.115967	-1064.447632	191.326843	637.003479	-1066.494629	219.036194	696.991333	-1070.032715	238.460312	778.894653	-698.562744	236.397141	646.572937	-694.928833	185.707825	637.503540	-693.013489	200.139008	701.220093	-689.138611	130.816772	1593.164185	-775.848328	241.551270	1576.051270	-786.858459	253.040070	1571.184937	-910.323669	263.169922	1391.351318	-858.119507	285.599335	1007.476868	-877.321167	140.835236	1328.139404	-872.910278	244.847107	1380.876343	-725.398743	236.788284	1396.757812	-986.976501	166.663376	1359.633423	-222.758926	207.293961	1355.097778	-222.475159	153.438828	1339.159180	-130.761032	241.019669	1389.382202	-1500.780396	287.923462	1383.161255	-1499.930176	235.271759	1391.628906	-1590.947754	293.216919	1329.784668	-1271.502686	254.874878	1296.328613	-1272.030640	222.015381	1300.948853	-454.165802	181.072693	1278.574341	-466.774170	238.104050	1354.442139	-506.295166	202.186371	1372.037109	-536.823364	239.148697	1362.845337	-585.491699	266.328461	1382.250000	-1205.893799	257.124542	1383.911499	-1144.171143	216.134430	1385.364380	-1212.350342	226.831360	883.484741	-770.972290	226.798981	884.247864	-985.535950	226.009247	455.468628	-775.156372	227.856308	453.925842	-988.228760	277.734314	71.045380	-739.826294	279.923462	70.296509	-1031.333130
